# xmcd
#
# Track frame offsets:
#	150
#	16850
#	32938
#	47795
#	66600
#	83815
#	103265
#	119325
#	132969
#	148691
#	164831
#	178148
#
# Disc length: 2653 seconds
#
# Revision: 1
# Processed by: cddbd v1.5.2PL0 Copyright (c) Steve Scherf et al.
# Submitted via: audiograbber 1.83.01
#
DISCID=b60a5b0c
DTITLE=Various Artist - Radio Canada International Country Picks 07-99
DYEAR=1999
DGENRE=Country
TTITLE0=Farmer's Daughter - Farmer's Daughter - Blue Horizon
TTITLE1=Prairie Oyster - Prairie Oyster - Keep On Dreaming
TTITLE2=Lisa Brokop - Lisa Brokop - Better Off Broken
TTITLE3=Steve Fox - Steve Fox - Why
TTITLE4=Terri Clark - Terri Clark - Every Time I Cry
TTITLE5=George Fox - George Fox - How Do I Get There From Her
TTITLE6=Stephanie Beaumont - Stephanie Beaumont - It's Not A Matter Of Love
TTITLE7=Sons Of Maxwell - Sons Of Maxwell - And We Danced
TTITLE8=Shirley Myers and Duane Steele - Shirley Myers and Duane Steele - Forever I
TTITLE8=n Love
TTITLE9=Jim Witter - Jim Witter - All My Life
TTITLE10=Patricia Conroy - Patricia Conroy - Ain't Nobody Like You
TTITLE11=Paul Brandt - Paul Brandt - That's The Truth
EXTD=
EXTT0=Blue Horizon\n
EXTT1=Keep On Dreaming\n
EXTT2=Better Off Broken\n
EXTT3=Why\n
EXTT4=Every Time I Cry\n
EXTT5=How Do I Get There From Her\n
EXTT6=It's Not A Matter Of Love\n
EXTT7=And We Danced\n
EXTT8=Forever In Love\n
EXTT9=All My Life\n
EXTT10=Ain't Nobody Like You\n
EXTT11=That's The Truth\n
PLAYORDER=
